<mxfile host="app.diagrams.net" modified="2023-12-14T21:34:15.955Z" agent="Mozilla/5.0 (Windows NT 10.0; Win64; x64) AppleWebKit/537.36 (KHTML, like Gecko) Chrome/119.0.0.0 Safari/537.36" etag="FRVpJ0dfbZqjNuGwoAlW" version="22.1.8" type="github">
  <diagram name="Page-1" id="fqoCip5DslXyCH3KvBzj">
    <mxGraphModel dx="1909" dy="2231" grid="1" gridSize="10" guides="1" tooltips="1" connect="1" arrows="1" fold="1" page="1" pageScale="1" pageWidth="827" pageHeight="1169" math="0" shadow="0">
      <root>
        <mxCell id="0" />
        <mxCell id="1" parent="0" />
        <mxCell id="piZFjqWehF9eRonAIHKo-6" value="" style="edgeStyle=none;curved=1;rounded=0;orthogonalLoop=1;jettySize=auto;html=1;fontSize=12;startSize=8;endSize=8;endArrow=none;endFill=0;" edge="1" parent="1" source="piZFjqWehF9eRonAIHKo-21" target="piZFjqWehF9eRonAIHKo-33">
          <mxGeometry relative="1" as="geometry" />
        </mxCell>
        <mxCell id="piZFjqWehF9eRonAIHKo-7" value="&amp;lt;- Está asociada" style="edgeLabel;html=1;align=center;verticalAlign=middle;resizable=0;points=[];fontSize=16;fontFamily=Helvetica;fontColor=default;" vertex="1" connectable="0" parent="piZFjqWehF9eRonAIHKo-6">
          <mxGeometry x="0.1971" relative="1" as="geometry">
            <mxPoint x="15" y="-14" as="offset" />
          </mxGeometry>
        </mxCell>
        <mxCell id="piZFjqWehF9eRonAIHKo-8" value="Genera -&amp;gt;" style="edgeLabel;html=1;align=center;verticalAlign=middle;resizable=0;points=[];fontSize=16;fontFamily=Helvetica;fontColor=default;" vertex="1" connectable="0" parent="piZFjqWehF9eRonAIHKo-6">
          <mxGeometry x="0.533" y="4" relative="1" as="geometry">
            <mxPoint x="50" y="10" as="offset" />
          </mxGeometry>
        </mxCell>
        <mxCell id="piZFjqWehF9eRonAIHKo-9" value="1...1" style="edgeLabel;html=1;align=center;verticalAlign=middle;resizable=0;points=[];fontSize=16;fontFamily=Helvetica;fontColor=default;" vertex="1" connectable="0" parent="piZFjqWehF9eRonAIHKo-6">
          <mxGeometry x="0.7502" y="-4" relative="1" as="geometry">
            <mxPoint x="-14" y="-9" as="offset" />
          </mxGeometry>
        </mxCell>
        <mxCell id="piZFjqWehF9eRonAIHKo-10" value="1...*" style="edgeLabel;html=1;align=center;verticalAlign=middle;resizable=0;points=[];fontSize=16;fontFamily=Helvetica;fontColor=default;" vertex="1" connectable="0" parent="piZFjqWehF9eRonAIHKo-6">
          <mxGeometry x="-0.8335" y="1" relative="1" as="geometry">
            <mxPoint x="2" y="11" as="offset" />
          </mxGeometry>
        </mxCell>
        <mxCell id="piZFjqWehF9eRonAIHKo-11" style="edgeStyle=orthogonalEdgeStyle;rounded=0;orthogonalLoop=1;jettySize=auto;html=1;exitX=0.75;exitY=0;exitDx=0;exitDy=0;entryX=0;entryY=0.5;entryDx=0;entryDy=0;fontSize=12;startSize=8;endSize=8;strokeColor=default;endArrow=none;endFill=0;" edge="1" parent="1" source="piZFjqWehF9eRonAIHKo-21" target="piZFjqWehF9eRonAIHKo-41">
          <mxGeometry relative="1" as="geometry">
            <Array as="points">
              <mxPoint x="970" y="600" />
            </Array>
          </mxGeometry>
        </mxCell>
        <mxCell id="piZFjqWehF9eRonAIHKo-12" value="Tiene -&amp;gt;" style="edgeLabel;html=1;align=center;verticalAlign=middle;resizable=0;points=[];fontSize=16;fontFamily=Helvetica;fontColor=default;" vertex="1" connectable="0" parent="piZFjqWehF9eRonAIHKo-11">
          <mxGeometry x="0.1146" relative="1" as="geometry">
            <mxPoint y="11" as="offset" />
          </mxGeometry>
        </mxCell>
        <mxCell id="piZFjqWehF9eRonAIHKo-13" value="&amp;lt;- Está asociado" style="edgeLabel;html=1;align=center;verticalAlign=middle;resizable=0;points=[];fontSize=16;fontFamily=Helvetica;fontColor=default;" vertex="1" connectable="0" parent="piZFjqWehF9eRonAIHKo-11">
          <mxGeometry x="0.1365" y="-2" relative="1" as="geometry">
            <mxPoint x="-8" y="-16" as="offset" />
          </mxGeometry>
        </mxCell>
        <mxCell id="piZFjqWehF9eRonAIHKo-14" value="1...1" style="edgeLabel;html=1;align=center;verticalAlign=middle;resizable=0;points=[];fontSize=16;fontFamily=Helvetica;fontColor=default;" vertex="1" connectable="0" parent="piZFjqWehF9eRonAIHKo-11">
          <mxGeometry x="0.8369" y="-1" relative="1" as="geometry">
            <mxPoint x="15" y="10" as="offset" />
          </mxGeometry>
        </mxCell>
        <mxCell id="piZFjqWehF9eRonAIHKo-15" value="1...*" style="edgeLabel;html=1;align=center;verticalAlign=middle;resizable=0;points=[];fontSize=16;fontFamily=Helvetica;fontColor=default;" vertex="1" connectable="0" parent="piZFjqWehF9eRonAIHKo-11">
          <mxGeometry x="-0.9239" relative="1" as="geometry">
            <mxPoint x="-17" y="5" as="offset" />
          </mxGeometry>
        </mxCell>
        <mxCell id="piZFjqWehF9eRonAIHKo-16" value="" style="edgeStyle=orthogonalEdgeStyle;rounded=0;orthogonalLoop=1;jettySize=auto;html=1;fontSize=12;startSize=8;endSize=8;endArrow=none;endFill=0;exitX=1;exitY=0.25;exitDx=0;exitDy=0;entryX=0;entryY=0.25;entryDx=0;entryDy=0;" edge="1" parent="1" source="piZFjqWehF9eRonAIHKo-147" target="piZFjqWehF9eRonAIHKo-42">
          <mxGeometry relative="1" as="geometry">
            <Array as="points">
              <mxPoint x="1670" y="825" />
              <mxPoint x="1670" y="825" />
            </Array>
            <mxPoint x="1140" y="690" as="sourcePoint" />
          </mxGeometry>
        </mxCell>
        <mxCell id="piZFjqWehF9eRonAIHKo-17" value="Contiene -&amp;gt;" style="edgeLabel;html=1;align=center;verticalAlign=middle;resizable=0;points=[];fontSize=16;fontFamily=Helvetica;fontColor=default;" vertex="1" connectable="0" parent="piZFjqWehF9eRonAIHKo-16">
          <mxGeometry x="-0.0721" y="-5" relative="1" as="geometry">
            <mxPoint y="5" as="offset" />
          </mxGeometry>
        </mxCell>
        <mxCell id="piZFjqWehF9eRonAIHKo-18" value="1...*" style="edgeLabel;html=1;align=center;verticalAlign=middle;resizable=0;points=[];fontSize=16;fontFamily=Helvetica;fontColor=default;" vertex="1" connectable="0" parent="piZFjqWehF9eRonAIHKo-16">
          <mxGeometry x="0.7147" y="4" relative="1" as="geometry">
            <mxPoint x="11" y="14" as="offset" />
          </mxGeometry>
        </mxCell>
        <mxCell id="piZFjqWehF9eRonAIHKo-19" value="&amp;lt;- Está asociado" style="edgeLabel;html=1;align=center;verticalAlign=middle;resizable=0;points=[];fontSize=16;fontFamily=Helvetica;fontColor=default;" vertex="1" connectable="0" parent="piZFjqWehF9eRonAIHKo-16">
          <mxGeometry x="-0.1088" y="4" relative="1" as="geometry">
            <mxPoint y="-8" as="offset" />
          </mxGeometry>
        </mxCell>
        <mxCell id="piZFjqWehF9eRonAIHKo-20" value="1...1" style="edgeLabel;html=1;align=center;verticalAlign=middle;resizable=0;points=[];fontSize=16;fontFamily=Helvetica;fontColor=default;" vertex="1" connectable="0" parent="piZFjqWehF9eRonAIHKo-16">
          <mxGeometry x="-0.8956" y="-1" relative="1" as="geometry">
            <mxPoint y="-14" as="offset" />
          </mxGeometry>
        </mxCell>
        <mxCell id="piZFjqWehF9eRonAIHKo-148" value="" style="edgeStyle=orthogonalEdgeStyle;rounded=0;orthogonalLoop=1;jettySize=auto;html=1;fontSize=12;startSize=8;endSize=8;endArrow=none;endFill=0;" edge="1" parent="1" source="piZFjqWehF9eRonAIHKo-21" target="piZFjqWehF9eRonAIHKo-147">
          <mxGeometry relative="1" as="geometry" />
        </mxCell>
        <mxCell id="piZFjqWehF9eRonAIHKo-184" value="Contiene -&amp;gt;" style="edgeLabel;html=1;align=center;verticalAlign=middle;resizable=0;points=[];fontSize=16;" vertex="1" connectable="0" parent="piZFjqWehF9eRonAIHKo-148">
          <mxGeometry x="-0.2054" y="2" relative="1" as="geometry">
            <mxPoint x="-2" y="14" as="offset" />
          </mxGeometry>
        </mxCell>
        <mxCell id="piZFjqWehF9eRonAIHKo-185" value="&amp;lt;- Pertenece" style="edgeLabel;html=1;align=center;verticalAlign=middle;resizable=0;points=[];fontSize=16;" vertex="1" connectable="0" parent="piZFjqWehF9eRonAIHKo-148">
          <mxGeometry x="0.1207" y="5" relative="1" as="geometry">
            <mxPoint x="-78" y="-7" as="offset" />
          </mxGeometry>
        </mxCell>
        <mxCell id="piZFjqWehF9eRonAIHKo-186" value="1...1" style="edgeLabel;html=1;align=center;verticalAlign=middle;resizable=0;points=[];fontSize=16;" vertex="1" connectable="0" parent="piZFjqWehF9eRonAIHKo-148">
          <mxGeometry x="-0.956" y="2" relative="1" as="geometry">
            <mxPoint x="8" y="-10" as="offset" />
          </mxGeometry>
        </mxCell>
        <mxCell id="piZFjqWehF9eRonAIHKo-187" value="1...*" style="edgeLabel;html=1;align=center;verticalAlign=middle;resizable=0;points=[];fontSize=16;" vertex="1" connectable="0" parent="piZFjqWehF9eRonAIHKo-148">
          <mxGeometry x="0.9445" y="1" relative="1" as="geometry">
            <mxPoint x="-18" as="offset" />
          </mxGeometry>
        </mxCell>
        <mxCell id="piZFjqWehF9eRonAIHKo-21" value="OrdenDomicilio" style="rounded=0;whiteSpace=wrap;html=1;fontSize=16;" vertex="1" parent="1">
          <mxGeometry x="880" y="680" width="120" height="60" as="geometry" />
        </mxCell>
        <mxCell id="piZFjqWehF9eRonAIHKo-146" style="edgeStyle=orthogonalEdgeStyle;rounded=0;orthogonalLoop=1;jettySize=auto;html=1;exitX=0.25;exitY=1;exitDx=0;exitDy=0;entryX=0.25;entryY=0;entryDx=0;entryDy=0;fontSize=12;startSize=8;endSize=8;endArrow=none;endFill=0;" edge="1" parent="1" source="piZFjqWehF9eRonAIHKo-22" target="piZFjqWehF9eRonAIHKo-21">
          <mxGeometry relative="1" as="geometry" />
        </mxCell>
        <mxCell id="piZFjqWehF9eRonAIHKo-157" value="Atiende -&amp;gt;" style="edgeLabel;html=1;align=center;verticalAlign=middle;resizable=0;points=[];fontSize=16;rotation=90;" vertex="1" connectable="0" parent="piZFjqWehF9eRonAIHKo-146">
          <mxGeometry x="-0.2947" y="-1" relative="1" as="geometry">
            <mxPoint x="-9" y="26" as="offset" />
          </mxGeometry>
        </mxCell>
        <mxCell id="piZFjqWehF9eRonAIHKo-158" value="Pertenece -&amp;gt;" style="edgeLabel;html=1;align=center;verticalAlign=middle;resizable=0;points=[];fontSize=16;rotation=-90;" vertex="1" connectable="0" parent="piZFjqWehF9eRonAIHKo-146">
          <mxGeometry x="0.4988" y="1" relative="1" as="geometry">
            <mxPoint x="9" y="-53" as="offset" />
          </mxGeometry>
        </mxCell>
        <mxCell id="piZFjqWehF9eRonAIHKo-159" value="1...1" style="edgeLabel;html=1;align=center;verticalAlign=middle;resizable=0;points=[];fontSize=16;" vertex="1" connectable="0" parent="piZFjqWehF9eRonAIHKo-146">
          <mxGeometry x="-0.8895" y="1" relative="1" as="geometry">
            <mxPoint x="16" y="1" as="offset" />
          </mxGeometry>
        </mxCell>
        <mxCell id="piZFjqWehF9eRonAIHKo-160" value="1...*" style="edgeLabel;html=1;align=center;verticalAlign=middle;resizable=0;points=[];fontSize=16;" vertex="1" connectable="0" parent="piZFjqWehF9eRonAIHKo-146">
          <mxGeometry x="0.8248" y="-2" relative="1" as="geometry">
            <mxPoint x="-15" y="3" as="offset" />
          </mxGeometry>
        </mxCell>
        <mxCell id="piZFjqWehF9eRonAIHKo-22" value="Mesero" style="rounded=0;whiteSpace=wrap;html=1;fontSize=16;" vertex="1" parent="1">
          <mxGeometry x="880" y="430" width="120" height="60" as="geometry" />
        </mxCell>
        <mxCell id="piZFjqWehF9eRonAIHKo-23" value="" style="edgeStyle=orthogonalEdgeStyle;rounded=0;orthogonalLoop=1;jettySize=auto;html=1;fontSize=12;startSize=8;endSize=8;endArrow=none;endFill=0;" edge="1" parent="1" source="piZFjqWehF9eRonAIHKo-33" target="piZFjqWehF9eRonAIHKo-39">
          <mxGeometry relative="1" as="geometry">
            <Array as="points">
              <mxPoint x="530" y="550" />
            </Array>
          </mxGeometry>
        </mxCell>
        <mxCell id="piZFjqWehF9eRonAIHKo-24" value="Genera -&amp;gt;" style="edgeLabel;html=1;align=center;verticalAlign=middle;resizable=0;points=[];fontSize=16;fontFamily=Helvetica;fontColor=default;" vertex="1" connectable="0" parent="piZFjqWehF9eRonAIHKo-23">
          <mxGeometry x="0.5611" y="2" relative="1" as="geometry">
            <mxPoint x="24" y="9" as="offset" />
          </mxGeometry>
        </mxCell>
        <mxCell id="piZFjqWehF9eRonAIHKo-25" value="1...*" style="edgeLabel;html=1;align=center;verticalAlign=middle;resizable=0;points=[];fontSize=16;fontFamily=Helvetica;fontColor=default;" vertex="1" connectable="0" parent="piZFjqWehF9eRonAIHKo-23">
          <mxGeometry x="-0.8937" relative="1" as="geometry">
            <mxPoint x="-18" y="1" as="offset" />
          </mxGeometry>
        </mxCell>
        <mxCell id="piZFjqWehF9eRonAIHKo-26" value="&amp;lt;- Está asociada" style="edgeLabel;html=1;align=center;verticalAlign=middle;resizable=0;points=[];fontSize=16;fontFamily=Helvetica;fontColor=default;" vertex="1" connectable="0" parent="piZFjqWehF9eRonAIHKo-23">
          <mxGeometry x="0.4231" y="-1" relative="1" as="geometry">
            <mxPoint x="13" y="-13" as="offset" />
          </mxGeometry>
        </mxCell>
        <mxCell id="piZFjqWehF9eRonAIHKo-27" value="1...1" style="edgeLabel;html=1;align=center;verticalAlign=middle;resizable=0;points=[];fontSize=16;fontFamily=Helvetica;fontColor=default;" vertex="1" connectable="0" parent="piZFjqWehF9eRonAIHKo-23">
          <mxGeometry x="0.8918" y="-2" relative="1" as="geometry">
            <mxPoint x="-1" y="-11" as="offset" />
          </mxGeometry>
        </mxCell>
        <mxCell id="piZFjqWehF9eRonAIHKo-169" value="" style="edgeStyle=none;curved=1;rounded=0;orthogonalLoop=1;jettySize=auto;html=1;fontSize=12;startSize=8;endSize=8;endArrow=none;endFill=0;" edge="1" parent="1" source="piZFjqWehF9eRonAIHKo-33" target="piZFjqWehF9eRonAIHKo-168">
          <mxGeometry relative="1" as="geometry" />
        </mxCell>
        <mxCell id="piZFjqWehF9eRonAIHKo-33" value="Conversación" style="whiteSpace=wrap;html=1;fontSize=16;rounded=0;" vertex="1" parent="1">
          <mxGeometry x="500" y="680" width="120" height="60" as="geometry" />
        </mxCell>
        <mxCell id="piZFjqWehF9eRonAIHKo-34" value="" style="edgeStyle=orthogonalEdgeStyle;rounded=0;orthogonalLoop=1;jettySize=auto;html=1;fontSize=12;startSize=8;endSize=8;endArrow=none;endFill=0;exitX=0;exitY=0.5;exitDx=0;exitDy=0;entryX=1;entryY=0.5;entryDx=0;entryDy=0;" edge="1" parent="1" source="piZFjqWehF9eRonAIHKo-33" target="piZFjqWehF9eRonAIHKo-40">
          <mxGeometry relative="1" as="geometry">
            <Array as="points">
              <mxPoint x="270" y="710" />
            </Array>
          </mxGeometry>
        </mxCell>
        <mxCell id="piZFjqWehF9eRonAIHKo-35" value="Sostiene -&amp;gt;" style="edgeLabel;html=1;align=center;verticalAlign=middle;resizable=0;points=[];fontSize=16;fontFamily=Helvetica;fontColor=default;" vertex="1" connectable="0" parent="piZFjqWehF9eRonAIHKo-34">
          <mxGeometry x="0.0332" y="4" relative="1" as="geometry">
            <mxPoint y="7" as="offset" />
          </mxGeometry>
        </mxCell>
        <mxCell id="piZFjqWehF9eRonAIHKo-36" value="1...*" style="edgeLabel;html=1;align=center;verticalAlign=middle;resizable=0;points=[];fontSize=16;fontFamily=Helvetica;fontColor=default;" vertex="1" connectable="0" parent="piZFjqWehF9eRonAIHKo-34">
          <mxGeometry x="-0.6726" y="-2" relative="1" as="geometry">
            <mxPoint x="19" y="11" as="offset" />
          </mxGeometry>
        </mxCell>
        <mxCell id="piZFjqWehF9eRonAIHKo-37" value="&amp;lt;- Está asociada" style="edgeLabel;html=1;align=center;verticalAlign=middle;resizable=0;points=[];fontSize=16;fontFamily=Helvetica;fontColor=default;" vertex="1" connectable="0" parent="piZFjqWehF9eRonAIHKo-34">
          <mxGeometry x="0.1417" y="-3" relative="1" as="geometry">
            <mxPoint x="15" y="-11" as="offset" />
          </mxGeometry>
        </mxCell>
        <mxCell id="piZFjqWehF9eRonAIHKo-38" value="1...1" style="edgeLabel;html=1;align=center;verticalAlign=middle;resizable=0;points=[];fontSize=16;fontFamily=Helvetica;fontColor=default;" vertex="1" connectable="0" parent="piZFjqWehF9eRonAIHKo-34">
          <mxGeometry x="0.8885" relative="1" as="geometry">
            <mxPoint x="2" y="-13" as="offset" />
          </mxGeometry>
        </mxCell>
        <mxCell id="piZFjqWehF9eRonAIHKo-39" value="Chatbot" style="whiteSpace=wrap;html=1;fontSize=16;rounded=0;" vertex="1" parent="1">
          <mxGeometry x="260" y="520" width="120" height="60" as="geometry" />
        </mxCell>
        <mxCell id="piZFjqWehF9eRonAIHKo-40" value="Cliente" style="whiteSpace=wrap;html=1;fontSize=16;rounded=0;" vertex="1" parent="1">
          <mxGeometry x="90" y="680" width="120" height="60" as="geometry" />
        </mxCell>
        <mxCell id="piZFjqWehF9eRonAIHKo-41" value="MetodoPago" style="rounded=0;whiteSpace=wrap;html=1;fontSize=16;" vertex="1" parent="1">
          <mxGeometry x="1320" y="570" width="120" height="60" as="geometry" />
        </mxCell>
        <mxCell id="piZFjqWehF9eRonAIHKo-209" style="edgeStyle=orthogonalEdgeStyle;shape=connector;rounded=0;orthogonalLoop=1;jettySize=auto;html=1;exitX=0.25;exitY=0;exitDx=0;exitDy=0;entryX=0;entryY=0.25;entryDx=0;entryDy=0;labelBackgroundColor=default;strokeColor=default;align=center;verticalAlign=middle;fontFamily=Helvetica;fontSize=16;fontColor=default;endArrow=none;endFill=0;startSize=8;endSize=8;" edge="1" parent="1" source="piZFjqWehF9eRonAIHKo-42" target="piZFjqWehF9eRonAIHKo-192">
          <mxGeometry relative="1" as="geometry" />
        </mxCell>
        <mxCell id="piZFjqWehF9eRonAIHKo-216" value="Puede tener -&amp;gt;" style="edgeLabel;html=1;align=center;verticalAlign=middle;resizable=0;points=[];fontSize=16;fontFamily=Helvetica;fontColor=default;" vertex="1" connectable="0" parent="piZFjqWehF9eRonAIHKo-209">
          <mxGeometry x="0.1062" y="-1" relative="1" as="geometry">
            <mxPoint y="13" as="offset" />
          </mxGeometry>
        </mxCell>
        <mxCell id="piZFjqWehF9eRonAIHKo-217" value="&amp;lt;- Está asociado" style="edgeLabel;html=1;align=center;verticalAlign=middle;resizable=0;points=[];fontSize=16;fontFamily=Helvetica;fontColor=default;" vertex="1" connectable="0" parent="piZFjqWehF9eRonAIHKo-209">
          <mxGeometry x="0.4999" y="3" relative="1" as="geometry">
            <mxPoint x="-93" y="-12" as="offset" />
          </mxGeometry>
        </mxCell>
        <mxCell id="piZFjqWehF9eRonAIHKo-218" value="1...1" style="edgeLabel;html=1;align=center;verticalAlign=middle;resizable=0;points=[];fontSize=16;fontFamily=Helvetica;fontColor=default;" vertex="1" connectable="0" parent="piZFjqWehF9eRonAIHKo-209">
          <mxGeometry x="-0.9158" y="-1" relative="1" as="geometry">
            <mxPoint x="-19" as="offset" />
          </mxGeometry>
        </mxCell>
        <mxCell id="piZFjqWehF9eRonAIHKo-219" value="1...*" style="edgeLabel;html=1;align=center;verticalAlign=middle;resizable=0;points=[];fontSize=16;fontFamily=Helvetica;fontColor=default;" vertex="1" connectable="0" parent="piZFjqWehF9eRonAIHKo-209">
          <mxGeometry x="0.8936" y="-2" relative="1" as="geometry">
            <mxPoint y="8" as="offset" />
          </mxGeometry>
        </mxCell>
        <mxCell id="piZFjqWehF9eRonAIHKo-211" style="edgeStyle=orthogonalEdgeStyle;shape=connector;rounded=0;orthogonalLoop=1;jettySize=auto;html=1;exitX=1;exitY=0.5;exitDx=0;exitDy=0;entryX=0;entryY=0.5;entryDx=0;entryDy=0;labelBackgroundColor=default;strokeColor=default;align=center;verticalAlign=middle;fontFamily=Helvetica;fontSize=16;fontColor=default;endArrow=none;endFill=0;startSize=8;endSize=8;" edge="1" parent="1" source="piZFjqWehF9eRonAIHKo-42" target="piZFjqWehF9eRonAIHKo-189">
          <mxGeometry relative="1" as="geometry">
            <Array as="points">
              <mxPoint x="1860" y="830" />
              <mxPoint x="1860" y="900" />
              <mxPoint x="2000" y="900" />
            </Array>
          </mxGeometry>
        </mxCell>
        <mxCell id="piZFjqWehF9eRonAIHKo-224" value="&amp;lt;- Está asociado" style="edgeLabel;html=1;align=center;verticalAlign=middle;resizable=0;points=[];fontSize=16;fontFamily=Helvetica;fontColor=default;" vertex="1" connectable="0" parent="piZFjqWehF9eRonAIHKo-211">
          <mxGeometry x="0.2339" y="1" relative="1" as="geometry">
            <mxPoint x="5" y="-15" as="offset" />
          </mxGeometry>
        </mxCell>
        <mxCell id="piZFjqWehF9eRonAIHKo-225" value="Puede tener -&amp;gt;" style="edgeLabel;html=1;align=center;verticalAlign=middle;resizable=0;points=[];fontSize=16;fontFamily=Helvetica;fontColor=default;" vertex="1" connectable="0" parent="piZFjqWehF9eRonAIHKo-211">
          <mxGeometry x="0.2414" y="-3" relative="1" as="geometry">
            <mxPoint y="9" as="offset" />
          </mxGeometry>
        </mxCell>
        <mxCell id="piZFjqWehF9eRonAIHKo-226" value="1...*" style="edgeLabel;html=1;align=center;verticalAlign=middle;resizable=0;points=[];fontSize=16;fontFamily=Helvetica;fontColor=default;" vertex="1" connectable="0" parent="piZFjqWehF9eRonAIHKo-211">
          <mxGeometry x="0.7393" y="-2" relative="1" as="geometry">
            <mxPoint x="17" y="8" as="offset" />
          </mxGeometry>
        </mxCell>
        <mxCell id="piZFjqWehF9eRonAIHKo-227" value="1...1" style="edgeLabel;html=1;align=center;verticalAlign=middle;resizable=0;points=[];fontSize=16;fontFamily=Helvetica;fontColor=default;" vertex="1" connectable="0" parent="piZFjqWehF9eRonAIHKo-211">
          <mxGeometry x="-0.9089" y="1" relative="1" as="geometry">
            <mxPoint x="3" y="-11" as="offset" />
          </mxGeometry>
        </mxCell>
        <mxCell id="piZFjqWehF9eRonAIHKo-215" style="edgeStyle=orthogonalEdgeStyle;shape=connector;rounded=0;orthogonalLoop=1;jettySize=auto;html=1;exitX=0.75;exitY=0;exitDx=0;exitDy=0;entryX=0.5;entryY=0;entryDx=0;entryDy=0;labelBackgroundColor=default;strokeColor=default;align=center;verticalAlign=middle;fontFamily=Helvetica;fontSize=16;fontColor=default;endArrow=none;endFill=0;startSize=8;endSize=8;" edge="1" parent="1" source="piZFjqWehF9eRonAIHKo-42" target="piZFjqWehF9eRonAIHKo-188">
          <mxGeometry relative="1" as="geometry">
            <Array as="points">
              <mxPoint x="1780" y="750" />
              <mxPoint x="2090" y="750" />
            </Array>
          </mxGeometry>
        </mxCell>
        <mxCell id="piZFjqWehF9eRonAIHKo-220" value="&amp;lt;- Está asociado" style="edgeLabel;html=1;align=center;verticalAlign=middle;resizable=0;points=[];fontSize=16;fontFamily=Helvetica;fontColor=default;" vertex="1" connectable="0" parent="piZFjqWehF9eRonAIHKo-215">
          <mxGeometry x="-0.0843" y="-2" relative="1" as="geometry">
            <mxPoint y="-21" as="offset" />
          </mxGeometry>
        </mxCell>
        <mxCell id="piZFjqWehF9eRonAIHKo-221" value="Puede tener -&amp;gt;" style="edgeLabel;html=1;align=center;verticalAlign=middle;resizable=0;points=[];fontSize=16;fontFamily=Helvetica;fontColor=default;" vertex="1" connectable="0" parent="piZFjqWehF9eRonAIHKo-215">
          <mxGeometry x="-0.0777" y="1" relative="1" as="geometry">
            <mxPoint y="10" as="offset" />
          </mxGeometry>
        </mxCell>
        <mxCell id="piZFjqWehF9eRonAIHKo-222" value="1...*" style="edgeLabel;html=1;align=center;verticalAlign=middle;resizable=0;points=[];fontSize=16;fontFamily=Helvetica;fontColor=default;" vertex="1" connectable="0" parent="piZFjqWehF9eRonAIHKo-215">
          <mxGeometry x="0.9277" y="2" relative="1" as="geometry">
            <mxPoint x="-20" y="1" as="offset" />
          </mxGeometry>
        </mxCell>
        <mxCell id="piZFjqWehF9eRonAIHKo-223" value="1...1" style="edgeLabel;html=1;align=center;verticalAlign=middle;resizable=0;points=[];fontSize=16;fontFamily=Helvetica;fontColor=default;" vertex="1" connectable="0" parent="piZFjqWehF9eRonAIHKo-215">
          <mxGeometry x="-0.9223" relative="1" as="geometry">
            <mxPoint x="-18" y="2" as="offset" />
          </mxGeometry>
        </mxCell>
        <mxCell id="piZFjqWehF9eRonAIHKo-42" value="Producto" style="whiteSpace=wrap;html=1;fontSize=16;rounded=0;" vertex="1" parent="1">
          <mxGeometry x="1690" y="800" width="120" height="60" as="geometry" />
        </mxCell>
        <mxCell id="piZFjqWehF9eRonAIHKo-43" style="rounded=0;orthogonalLoop=1;jettySize=auto;html=1;exitX=1;exitY=0.5;exitDx=0;exitDy=0;fontSize=12;startSize=8;endSize=8;endArrow=none;endFill=0;elbow=vertical;edgeStyle=orthogonalEdgeStyle;entryX=0.5;entryY=0;entryDx=0;entryDy=0;" edge="1" parent="1" source="piZFjqWehF9eRonAIHKo-48" target="piZFjqWehF9eRonAIHKo-22">
          <mxGeometry relative="1" as="geometry">
            <mxPoint x="870" y="430" as="targetPoint" />
            <Array as="points">
              <mxPoint x="940" y="330" />
            </Array>
          </mxGeometry>
        </mxCell>
        <mxCell id="piZFjqWehF9eRonAIHKo-44" value="Tiene-&amp;gt;" style="edgeLabel;html=1;align=center;verticalAlign=middle;resizable=0;points=[];fontSize=16;fontFamily=Helvetica;fontColor=default;" vertex="1" connectable="0" parent="piZFjqWehF9eRonAIHKo-43">
          <mxGeometry x="0.0941" y="2" relative="1" as="geometry">
            <mxPoint x="-65" y="18" as="offset" />
          </mxGeometry>
        </mxCell>
        <mxCell id="piZFjqWehF9eRonAIHKo-45" value="&amp;lt;- Trabaja" style="edgeLabel;html=1;align=center;verticalAlign=middle;resizable=0;points=[];fontSize=16;fontFamily=Helvetica;fontColor=default;" vertex="1" connectable="0" parent="piZFjqWehF9eRonAIHKo-43">
          <mxGeometry x="-0.4857" relative="1" as="geometry">
            <mxPoint x="30" y="-15" as="offset" />
          </mxGeometry>
        </mxCell>
        <mxCell id="piZFjqWehF9eRonAIHKo-46" value="1...*" style="edgeLabel;html=1;align=center;verticalAlign=middle;resizable=0;points=[];fontSize=16;fontFamily=Helvetica;fontColor=default;" vertex="1" connectable="0" parent="piZFjqWehF9eRonAIHKo-43">
          <mxGeometry x="0.8672" y="-3" relative="1" as="geometry">
            <mxPoint x="-17" y="15" as="offset" />
          </mxGeometry>
        </mxCell>
        <mxCell id="piZFjqWehF9eRonAIHKo-47" value="1...1" style="edgeLabel;html=1;align=center;verticalAlign=middle;resizable=0;points=[];fontSize=16;fontFamily=Helvetica;fontColor=default;" vertex="1" connectable="0" parent="piZFjqWehF9eRonAIHKo-43">
          <mxGeometry x="-0.8218" y="5" relative="1" as="geometry">
            <mxPoint x="-9" y="-8" as="offset" />
          </mxGeometry>
        </mxCell>
        <mxCell id="piZFjqWehF9eRonAIHKo-144" value="" style="edgeStyle=orthogonalEdgeStyle;rounded=0;orthogonalLoop=1;jettySize=auto;html=1;fontSize=12;startSize=8;endSize=8;endArrow=none;endFill=0;entryX=0.5;entryY=1;entryDx=0;entryDy=0;" edge="1" parent="1" target="piZFjqWehF9eRonAIHKo-143">
          <mxGeometry relative="1" as="geometry">
            <mxPoint x="539" y="300" as="sourcePoint" />
            <mxPoint x="539" y="170" as="targetPoint" />
          </mxGeometry>
        </mxCell>
        <mxCell id="piZFjqWehF9eRonAIHKo-149" value="Tiene -&amp;gt;" style="edgeLabel;html=1;align=center;verticalAlign=middle;resizable=0;points=[];fontSize=16;rotation=-90;" vertex="1" connectable="0" parent="piZFjqWehF9eRonAIHKo-144">
          <mxGeometry x="0.0962" y="-2" relative="1" as="geometry">
            <mxPoint x="12" y="4" as="offset" />
          </mxGeometry>
        </mxCell>
        <mxCell id="piZFjqWehF9eRonAIHKo-150" value="Pertenece -&amp;gt;" style="edgeLabel;html=1;align=center;verticalAlign=middle;resizable=0;points=[];fontSize=16;rotation=90;" vertex="1" connectable="0" parent="piZFjqWehF9eRonAIHKo-144">
          <mxGeometry x="0.1923" y="3" relative="1" as="geometry">
            <mxPoint x="-10" y="9" as="offset" />
          </mxGeometry>
        </mxCell>
        <mxCell id="piZFjqWehF9eRonAIHKo-151" value="1...*" style="edgeLabel;html=1;align=center;verticalAlign=middle;resizable=0;points=[];fontSize=16;" vertex="1" connectable="0" parent="piZFjqWehF9eRonAIHKo-144">
          <mxGeometry x="0.8726" y="-1" relative="1" as="geometry">
            <mxPoint x="15" as="offset" />
          </mxGeometry>
        </mxCell>
        <mxCell id="piZFjqWehF9eRonAIHKo-152" value="1....1" style="edgeLabel;html=1;align=center;verticalAlign=middle;resizable=0;points=[];fontSize=16;" vertex="1" connectable="0" parent="piZFjqWehF9eRonAIHKo-144">
          <mxGeometry x="-0.8063" y="1" relative="1" as="geometry">
            <mxPoint x="-20" y="1" as="offset" />
          </mxGeometry>
        </mxCell>
        <mxCell id="piZFjqWehF9eRonAIHKo-48" value="Restaurante&lt;br&gt;" style="rounded=0;whiteSpace=wrap;html=1;fontSize=16;" vertex="1" parent="1">
          <mxGeometry x="480" y="300" width="120" height="60" as="geometry" />
        </mxCell>
        <mxCell id="piZFjqWehF9eRonAIHKo-49" style="edgeStyle=orthogonalEdgeStyle;shape=connector;rounded=0;orthogonalLoop=1;jettySize=auto;html=1;exitX=0.5;exitY=1;exitDx=0;exitDy=0;entryX=0.5;entryY=0;entryDx=0;entryDy=0;labelBackgroundColor=default;strokeColor=default;align=center;verticalAlign=middle;fontFamily=Helvetica;fontSize=16;fontColor=default;endArrow=none;endFill=0;startSize=8;endSize=8;" edge="1" parent="1" source="piZFjqWehF9eRonAIHKo-52" target="piZFjqWehF9eRonAIHKo-40">
          <mxGeometry relative="1" as="geometry" />
        </mxCell>
        <mxCell id="piZFjqWehF9eRonAIHKo-50" value="Tiene -&amp;gt;" style="edgeLabel;html=1;align=center;verticalAlign=middle;resizable=0;points=[];fontSize=16;fontFamily=Helvetica;fontColor=default;rotation=270;" vertex="1" connectable="0" parent="piZFjqWehF9eRonAIHKo-49">
          <mxGeometry x="-0.1108" y="1" relative="1" as="geometry">
            <mxPoint x="9" y="15" as="offset" />
          </mxGeometry>
        </mxCell>
        <mxCell id="piZFjqWehF9eRonAIHKo-51" value="1...*" style="edgeLabel;html=1;align=center;verticalAlign=middle;resizable=0;points=[];fontSize=16;fontFamily=Helvetica;fontColor=default;" vertex="1" connectable="0" parent="piZFjqWehF9eRonAIHKo-49">
          <mxGeometry x="-0.8068" y="5" relative="1" as="geometry">
            <mxPoint x="15" y="-9" as="offset" />
          </mxGeometry>
        </mxCell>
        <mxCell id="piZFjqWehF9eRonAIHKo-80" value="Pertenece -&amp;gt;" style="edgeLabel;html=1;align=center;verticalAlign=middle;resizable=0;points=[];fontSize=16;rotation=90;" vertex="1" connectable="0" parent="piZFjqWehF9eRonAIHKo-49">
          <mxGeometry x="-0.418" y="-2" relative="1" as="geometry">
            <mxPoint x="-11" y="40" as="offset" />
          </mxGeometry>
        </mxCell>
        <mxCell id="piZFjqWehF9eRonAIHKo-81" value="1...1" style="edgeLabel;html=1;align=center;verticalAlign=middle;resizable=0;points=[];fontSize=16;" vertex="1" connectable="0" parent="piZFjqWehF9eRonAIHKo-49">
          <mxGeometry x="0.8451" y="-1" relative="1" as="geometry">
            <mxPoint x="-19" as="offset" />
          </mxGeometry>
        </mxCell>
        <mxCell id="piZFjqWehF9eRonAIHKo-52" value="Dirección" style="rounded=0;whiteSpace=wrap;html=1;strokeColor=default;align=center;verticalAlign=middle;fontFamily=Helvetica;fontSize=16;fontColor=default;fillColor=default;" vertex="1" parent="1">
          <mxGeometry x="90" y="430" width="120" height="60" as="geometry" />
        </mxCell>
        <mxCell id="piZFjqWehF9eRonAIHKo-53" style="edgeStyle=orthogonalEdgeStyle;shape=connector;rounded=0;orthogonalLoop=1;jettySize=auto;html=1;exitX=0.5;exitY=1;exitDx=0;exitDy=0;entryX=0.5;entryY=0;entryDx=0;entryDy=0;labelBackgroundColor=default;strokeColor=default;align=center;verticalAlign=middle;fontFamily=Helvetica;fontSize=16;fontColor=default;endArrow=none;endFill=0;startSize=8;endSize=8;" edge="1" parent="1" source="piZFjqWehF9eRonAIHKo-58" target="piZFjqWehF9eRonAIHKo-52">
          <mxGeometry relative="1" as="geometry" />
        </mxCell>
        <mxCell id="piZFjqWehF9eRonAIHKo-54" value="Está ubicada -&amp;gt;" style="edgeLabel;html=1;align=center;verticalAlign=middle;resizable=0;points=[];fontSize=16;fontFamily=Helvetica;fontColor=default;rotation=-90;" vertex="1" connectable="0" parent="piZFjqWehF9eRonAIHKo-53">
          <mxGeometry x="0.1843" y="2" relative="1" as="geometry">
            <mxPoint x="10" y="-7" as="offset" />
          </mxGeometry>
        </mxCell>
        <mxCell id="piZFjqWehF9eRonAIHKo-55" value="1...*" style="edgeLabel;html=1;align=center;verticalAlign=middle;resizable=0;points=[];fontSize=16;fontFamily=Helvetica;fontColor=default;" vertex="1" connectable="0" parent="piZFjqWehF9eRonAIHKo-53">
          <mxGeometry x="-0.7176" y="5" relative="1" as="geometry">
            <mxPoint x="13" y="-10" as="offset" />
          </mxGeometry>
        </mxCell>
        <mxCell id="piZFjqWehF9eRonAIHKo-56" value="&amp;lt;- Tiene" style="edgeLabel;html=1;align=center;verticalAlign=middle;resizable=0;points=[];fontSize=16;fontFamily=Helvetica;fontColor=default;rotation=-90;" vertex="1" connectable="0" parent="piZFjqWehF9eRonAIHKo-53">
          <mxGeometry x="-0.0614" y="-3" relative="1" as="geometry">
            <mxPoint x="-10" y="6" as="offset" />
          </mxGeometry>
        </mxCell>
        <mxCell id="piZFjqWehF9eRonAIHKo-57" value="1...*" style="edgeLabel;html=1;align=center;verticalAlign=middle;resizable=0;points=[];fontSize=16;fontFamily=Helvetica;fontColor=default;" vertex="1" connectable="0" parent="piZFjqWehF9eRonAIHKo-53">
          <mxGeometry x="0.8173" relative="1" as="geometry">
            <mxPoint x="-16" y="5" as="offset" />
          </mxGeometry>
        </mxCell>
        <mxCell id="piZFjqWehF9eRonAIHKo-58" value="Ciudad" style="rounded=0;whiteSpace=wrap;html=1;strokeColor=default;align=center;verticalAlign=middle;fontFamily=Helvetica;fontSize=16;fontColor=default;fillColor=default;" vertex="1" parent="1">
          <mxGeometry x="90" y="190" width="120" height="60" as="geometry" />
        </mxCell>
        <mxCell id="piZFjqWehF9eRonAIHKo-59" style="edgeStyle=orthogonalEdgeStyle;shape=connector;rounded=0;orthogonalLoop=1;jettySize=auto;html=1;exitX=0.5;exitY=1;exitDx=0;exitDy=0;entryX=0.5;entryY=0;entryDx=0;entryDy=0;labelBackgroundColor=default;strokeColor=default;align=center;verticalAlign=middle;fontFamily=Helvetica;fontSize=16;fontColor=default;endArrow=none;endFill=0;startSize=8;endSize=8;" edge="1" parent="1" source="piZFjqWehF9eRonAIHKo-64" target="piZFjqWehF9eRonAIHKo-58">
          <mxGeometry relative="1" as="geometry" />
        </mxCell>
        <mxCell id="piZFjqWehF9eRonAIHKo-60" value="Está Ubicada -&amp;gt;" style="edgeLabel;html=1;align=center;verticalAlign=middle;resizable=0;points=[];fontSize=16;fontFamily=Helvetica;fontColor=default;rotation=-90;" vertex="1" connectable="0" parent="piZFjqWehF9eRonAIHKo-59">
          <mxGeometry x="-0.0282" y="1" relative="1" as="geometry">
            <mxPoint x="14" y="13" as="offset" />
          </mxGeometry>
        </mxCell>
        <mxCell id="piZFjqWehF9eRonAIHKo-61" value="1...*" style="edgeLabel;html=1;align=center;verticalAlign=middle;resizable=0;points=[];fontSize=16;fontFamily=Helvetica;fontColor=default;" vertex="1" connectable="0" parent="piZFjqWehF9eRonAIHKo-59">
          <mxGeometry x="-0.8165" y="-2" relative="1" as="geometry">
            <mxPoint x="18" y="-3" as="offset" />
          </mxGeometry>
        </mxCell>
        <mxCell id="piZFjqWehF9eRonAIHKo-62" value="&amp;lt;- Tiene" style="edgeLabel;html=1;align=center;verticalAlign=middle;resizable=0;points=[];fontSize=16;fontFamily=Helvetica;fontColor=default;rotation=-90;" vertex="1" connectable="0" parent="piZFjqWehF9eRonAIHKo-59">
          <mxGeometry x="0.143" relative="1" as="geometry">
            <mxPoint x="-20" y="2" as="offset" />
          </mxGeometry>
        </mxCell>
        <mxCell id="piZFjqWehF9eRonAIHKo-63" value="1...*" style="edgeLabel;html=1;align=center;verticalAlign=middle;resizable=0;points=[];fontSize=16;fontFamily=Helvetica;fontColor=default;" vertex="1" connectable="0" parent="piZFjqWehF9eRonAIHKo-59">
          <mxGeometry x="0.8118" y="-2" relative="1" as="geometry">
            <mxPoint x="-18" as="offset" />
          </mxGeometry>
        </mxCell>
        <mxCell id="piZFjqWehF9eRonAIHKo-64" value="Departamento" style="rounded=0;whiteSpace=wrap;html=1;strokeColor=default;align=center;verticalAlign=middle;fontFamily=Helvetica;fontSize=16;fontColor=default;fillColor=default;" vertex="1" parent="1">
          <mxGeometry x="90" y="-60" width="120" height="60" as="geometry" />
        </mxCell>
        <mxCell id="piZFjqWehF9eRonAIHKo-65" style="edgeStyle=orthogonalEdgeStyle;shape=connector;rounded=0;orthogonalLoop=1;jettySize=auto;html=1;exitX=0.5;exitY=1;exitDx=0;exitDy=0;entryX=0.5;entryY=0;entryDx=0;entryDy=0;labelBackgroundColor=default;strokeColor=default;align=center;verticalAlign=middle;fontFamily=Helvetica;fontSize=16;fontColor=default;endArrow=none;endFill=0;startSize=8;endSize=8;" edge="1" parent="1" source="piZFjqWehF9eRonAIHKo-70" target="piZFjqWehF9eRonAIHKo-64">
          <mxGeometry relative="1" as="geometry" />
        </mxCell>
        <mxCell id="piZFjqWehF9eRonAIHKo-66" value="Está ubicado -&amp;gt;" style="edgeLabel;html=1;align=center;verticalAlign=middle;resizable=0;points=[];fontSize=16;fontFamily=Helvetica;fontColor=default;rotation=270;" vertex="1" connectable="0" parent="piZFjqWehF9eRonAIHKo-65">
          <mxGeometry x="-0.0792" y="5" relative="1" as="geometry">
            <mxPoint x="8" y="13" as="offset" />
          </mxGeometry>
        </mxCell>
        <mxCell id="piZFjqWehF9eRonAIHKo-67" value="1...*" style="edgeLabel;html=1;align=center;verticalAlign=middle;resizable=0;points=[];fontSize=16;fontFamily=Helvetica;fontColor=default;" vertex="1" connectable="0" parent="piZFjqWehF9eRonAIHKo-65">
          <mxGeometry x="-0.702" relative="1" as="geometry">
            <mxPoint x="20" y="-16" as="offset" />
          </mxGeometry>
        </mxCell>
        <mxCell id="piZFjqWehF9eRonAIHKo-68" value="&amp;lt;- Tiene" style="edgeLabel;html=1;align=center;verticalAlign=middle;resizable=0;points=[];fontSize=16;fontFamily=Helvetica;fontColor=default;rotation=270;" vertex="1" connectable="0" parent="piZFjqWehF9eRonAIHKo-65">
          <mxGeometry x="0.2131" y="-1" relative="1" as="geometry">
            <mxPoint x="-15" y="-19" as="offset" />
          </mxGeometry>
        </mxCell>
        <mxCell id="piZFjqWehF9eRonAIHKo-69" value="1...*" style="edgeLabel;html=1;align=center;verticalAlign=middle;resizable=0;points=[];fontSize=16;fontFamily=Helvetica;fontColor=default;" vertex="1" connectable="0" parent="piZFjqWehF9eRonAIHKo-65">
          <mxGeometry x="0.7621" y="-4" relative="1" as="geometry">
            <mxPoint x="-15" y="7" as="offset" />
          </mxGeometry>
        </mxCell>
        <mxCell id="piZFjqWehF9eRonAIHKo-70" value="País" style="rounded=0;whiteSpace=wrap;html=1;strokeColor=default;align=center;verticalAlign=middle;fontFamily=Helvetica;fontSize=16;fontColor=default;fillColor=default;" vertex="1" parent="1">
          <mxGeometry x="90" y="-310" width="120" height="60" as="geometry" />
        </mxCell>
        <mxCell id="piZFjqWehF9eRonAIHKo-71" style="edgeStyle=orthogonalEdgeStyle;shape=connector;rounded=0;orthogonalLoop=1;jettySize=auto;html=1;exitX=0;exitY=0.5;exitDx=0;exitDy=0;entryX=0.5;entryY=1;entryDx=0;entryDy=0;labelBackgroundColor=default;strokeColor=default;align=center;verticalAlign=middle;fontFamily=Helvetica;fontSize=16;fontColor=default;endArrow=none;endFill=0;startSize=8;endSize=8;" edge="1" parent="1" source="piZFjqWehF9eRonAIHKo-76" target="piZFjqWehF9eRonAIHKo-21">
          <mxGeometry relative="1" as="geometry">
            <Array as="points">
              <mxPoint x="940" y="1010" />
            </Array>
          </mxGeometry>
        </mxCell>
        <mxCell id="piZFjqWehF9eRonAIHKo-72" value="&amp;lt;-Atiende" style="edgeLabel;html=1;align=center;verticalAlign=middle;resizable=0;points=[];fontSize=16;fontFamily=Helvetica;fontColor=default;rotation=90;" vertex="1" connectable="0" parent="piZFjqWehF9eRonAIHKo-71">
          <mxGeometry x="-0.1914" y="-4" relative="1" as="geometry">
            <mxPoint x="-23" y="-74" as="offset" />
          </mxGeometry>
        </mxCell>
        <mxCell id="piZFjqWehF9eRonAIHKo-73" value="Tiene -&amp;gt;" style="edgeLabel;html=1;align=center;verticalAlign=middle;resizable=0;points=[];fontSize=16;fontFamily=Helvetica;fontColor=default;rotation=90;" vertex="1" connectable="0" parent="piZFjqWehF9eRonAIHKo-71">
          <mxGeometry x="0.0343" y="3" relative="1" as="geometry">
            <mxPoint x="17" y="-26" as="offset" />
          </mxGeometry>
        </mxCell>
        <mxCell id="piZFjqWehF9eRonAIHKo-74" value="1...1" style="edgeLabel;html=1;align=center;verticalAlign=middle;resizable=0;points=[];fontSize=16;fontFamily=Helvetica;fontColor=default;" vertex="1" connectable="0" parent="piZFjqWehF9eRonAIHKo-71">
          <mxGeometry x="-0.9164" y="3" relative="1" as="geometry">
            <mxPoint x="-13" y="8" as="offset" />
          </mxGeometry>
        </mxCell>
        <mxCell id="piZFjqWehF9eRonAIHKo-75" value="1...*" style="edgeLabel;html=1;align=center;verticalAlign=middle;resizable=0;points=[];fontSize=16;fontFamily=Helvetica;fontColor=default;" vertex="1" connectable="0" parent="piZFjqWehF9eRonAIHKo-71">
          <mxGeometry x="0.9371" y="-2" relative="1" as="geometry">
            <mxPoint x="13" y="-2" as="offset" />
          </mxGeometry>
        </mxCell>
        <mxCell id="piZFjqWehF9eRonAIHKo-162" value="" style="edgeStyle=orthogonalEdgeStyle;rounded=0;orthogonalLoop=1;jettySize=auto;html=1;fontSize=12;startSize=8;endSize=8;endArrow=none;endFill=0;" edge="1" parent="1" source="piZFjqWehF9eRonAIHKo-76" target="piZFjqWehF9eRonAIHKo-161">
          <mxGeometry relative="1" as="geometry" />
        </mxCell>
        <mxCell id="piZFjqWehF9eRonAIHKo-163" value="Tiene -&amp;gt;" style="edgeLabel;html=1;align=center;verticalAlign=middle;resizable=0;points=[];fontSize=16;rotation=90;" vertex="1" connectable="0" parent="piZFjqWehF9eRonAIHKo-162">
          <mxGeometry x="-0.6281" y="-3" relative="1" as="geometry">
            <mxPoint x="-7" y="53" as="offset" />
          </mxGeometry>
        </mxCell>
        <mxCell id="piZFjqWehF9eRonAIHKo-164" value="Está asociado -&amp;gt;" style="edgeLabel;html=1;align=center;verticalAlign=middle;resizable=0;points=[];fontSize=16;rotation=-90;" vertex="1" connectable="0" parent="piZFjqWehF9eRonAIHKo-162">
          <mxGeometry x="-0.0667" y="2" relative="1" as="geometry">
            <mxPoint x="12" as="offset" />
          </mxGeometry>
        </mxCell>
        <mxCell id="piZFjqWehF9eRonAIHKo-165" value="1...1" style="edgeLabel;html=1;align=center;verticalAlign=middle;resizable=0;points=[];fontSize=16;" vertex="1" connectable="0" parent="piZFjqWehF9eRonAIHKo-162">
          <mxGeometry x="0.8597" y="-2" relative="1" as="geometry">
            <mxPoint x="-18" as="offset" />
          </mxGeometry>
        </mxCell>
        <mxCell id="piZFjqWehF9eRonAIHKo-167" value="1...*" style="edgeLabel;html=1;align=center;verticalAlign=middle;resizable=0;points=[];fontSize=16;" vertex="1" connectable="0" parent="piZFjqWehF9eRonAIHKo-162">
          <mxGeometry x="-0.9039" y="-1" relative="1" as="geometry">
            <mxPoint x="21" as="offset" />
          </mxGeometry>
        </mxCell>
        <mxCell id="piZFjqWehF9eRonAIHKo-76" value="Encargado Domicilio" style="rounded=0;whiteSpace=wrap;html=1;strokeColor=default;align=center;verticalAlign=middle;fontFamily=Helvetica;fontSize=16;fontColor=default;fillColor=default;" vertex="1" parent="1">
          <mxGeometry x="1070" y="990" width="120" height="60" as="geometry" />
        </mxCell>
        <mxCell id="piZFjqWehF9eRonAIHKo-77" style="edgeStyle=orthogonalEdgeStyle;shape=connector;rounded=0;orthogonalLoop=1;jettySize=auto;html=1;exitX=0.75;exitY=1;exitDx=0;exitDy=0;entryX=0.5;entryY=1;entryDx=0;entryDy=0;labelBackgroundColor=default;strokeColor=default;align=center;verticalAlign=middle;fontFamily=Helvetica;fontSize=16;fontColor=default;endArrow=none;endFill=0;startSize=8;endSize=8;" edge="1" parent="1" source="piZFjqWehF9eRonAIHKo-52" target="piZFjqWehF9eRonAIHKo-52">
          <mxGeometry relative="1" as="geometry" />
        </mxCell>
        <mxCell id="piZFjqWehF9eRonAIHKo-122" value="1...*" style="edgeLabel;html=1;align=center;verticalAlign=middle;resizable=0;points=[];fontSize=16;fontFamily=Helvetica;fontColor=default;" vertex="1" connectable="0" parent="1">
          <mxGeometry x="560" y="-121.49999999999955" as="geometry" />
        </mxCell>
        <mxCell id="piZFjqWehF9eRonAIHKo-123" value="Dirección" style="rounded=0;whiteSpace=wrap;html=1;strokeColor=default;align=center;verticalAlign=middle;fontFamily=Helvetica;fontSize=16;fontColor=default;fillColor=default;" vertex="1" parent="1">
          <mxGeometry x="480" y="-151.5" width="120" height="60" as="geometry" />
        </mxCell>
        <mxCell id="piZFjqWehF9eRonAIHKo-124" style="edgeStyle=orthogonalEdgeStyle;shape=connector;rounded=0;orthogonalLoop=1;jettySize=auto;html=1;exitX=0.5;exitY=1;exitDx=0;exitDy=0;entryX=0.5;entryY=0;entryDx=0;entryDy=0;labelBackgroundColor=default;strokeColor=default;align=center;verticalAlign=middle;fontFamily=Helvetica;fontSize=16;fontColor=default;endArrow=none;endFill=0;startSize=8;endSize=8;" edge="1" parent="1" source="piZFjqWehF9eRonAIHKo-129" target="piZFjqWehF9eRonAIHKo-123">
          <mxGeometry relative="1" as="geometry" />
        </mxCell>
        <mxCell id="piZFjqWehF9eRonAIHKo-125" value="Está ubicada -&amp;gt;" style="edgeLabel;html=1;align=center;verticalAlign=middle;resizable=0;points=[];fontSize=16;fontFamily=Helvetica;fontColor=default;rotation=-90;" vertex="1" connectable="0" parent="piZFjqWehF9eRonAIHKo-124">
          <mxGeometry x="0.1843" y="2" relative="1" as="geometry">
            <mxPoint x="10" y="-7" as="offset" />
          </mxGeometry>
        </mxCell>
        <mxCell id="piZFjqWehF9eRonAIHKo-126" value="1...*" style="edgeLabel;html=1;align=center;verticalAlign=middle;resizable=0;points=[];fontSize=16;fontFamily=Helvetica;fontColor=default;" vertex="1" connectable="0" parent="piZFjqWehF9eRonAIHKo-124">
          <mxGeometry x="-0.7176" y="5" relative="1" as="geometry">
            <mxPoint x="13" y="-10" as="offset" />
          </mxGeometry>
        </mxCell>
        <mxCell id="piZFjqWehF9eRonAIHKo-127" value="&amp;lt;- Tiene" style="edgeLabel;html=1;align=center;verticalAlign=middle;resizable=0;points=[];fontSize=16;fontFamily=Helvetica;fontColor=default;rotation=-90;" vertex="1" connectable="0" parent="piZFjqWehF9eRonAIHKo-124">
          <mxGeometry x="-0.0614" y="-3" relative="1" as="geometry">
            <mxPoint x="-10" y="6" as="offset" />
          </mxGeometry>
        </mxCell>
        <mxCell id="piZFjqWehF9eRonAIHKo-128" value="1...*" style="edgeLabel;html=1;align=center;verticalAlign=middle;resizable=0;points=[];fontSize=16;fontFamily=Helvetica;fontColor=default;" vertex="1" connectable="0" parent="piZFjqWehF9eRonAIHKo-124">
          <mxGeometry x="0.8173" relative="1" as="geometry">
            <mxPoint x="-16" y="5" as="offset" />
          </mxGeometry>
        </mxCell>
        <mxCell id="piZFjqWehF9eRonAIHKo-129" value="Ciudad" style="rounded=0;whiteSpace=wrap;html=1;strokeColor=default;align=center;verticalAlign=middle;fontFamily=Helvetica;fontSize=16;fontColor=default;fillColor=default;" vertex="1" parent="1">
          <mxGeometry x="480" y="-430" width="120" height="60" as="geometry" />
        </mxCell>
        <mxCell id="piZFjqWehF9eRonAIHKo-130" style="edgeStyle=orthogonalEdgeStyle;shape=connector;rounded=0;orthogonalLoop=1;jettySize=auto;html=1;exitX=0.5;exitY=1;exitDx=0;exitDy=0;entryX=0.5;entryY=0;entryDx=0;entryDy=0;labelBackgroundColor=default;strokeColor=default;align=center;verticalAlign=middle;fontFamily=Helvetica;fontSize=16;fontColor=default;endArrow=none;endFill=0;startSize=8;endSize=8;" edge="1" parent="1" source="piZFjqWehF9eRonAIHKo-135" target="piZFjqWehF9eRonAIHKo-129">
          <mxGeometry relative="1" as="geometry" />
        </mxCell>
        <mxCell id="piZFjqWehF9eRonAIHKo-131" value="Está Ubicada -&amp;gt;" style="edgeLabel;html=1;align=center;verticalAlign=middle;resizable=0;points=[];fontSize=16;fontFamily=Helvetica;fontColor=default;rotation=-90;" vertex="1" connectable="0" parent="piZFjqWehF9eRonAIHKo-130">
          <mxGeometry x="-0.0282" y="1" relative="1" as="geometry">
            <mxPoint x="14" y="13" as="offset" />
          </mxGeometry>
        </mxCell>
        <mxCell id="piZFjqWehF9eRonAIHKo-132" value="1...*" style="edgeLabel;html=1;align=center;verticalAlign=middle;resizable=0;points=[];fontSize=16;fontFamily=Helvetica;fontColor=default;" vertex="1" connectable="0" parent="piZFjqWehF9eRonAIHKo-130">
          <mxGeometry x="-0.8165" y="-2" relative="1" as="geometry">
            <mxPoint x="18" y="-3" as="offset" />
          </mxGeometry>
        </mxCell>
        <mxCell id="piZFjqWehF9eRonAIHKo-133" value="&amp;lt;- Tiene" style="edgeLabel;html=1;align=center;verticalAlign=middle;resizable=0;points=[];fontSize=16;fontFamily=Helvetica;fontColor=default;rotation=-90;" vertex="1" connectable="0" parent="piZFjqWehF9eRonAIHKo-130">
          <mxGeometry x="0.143" relative="1" as="geometry">
            <mxPoint x="-20" y="2" as="offset" />
          </mxGeometry>
        </mxCell>
        <mxCell id="piZFjqWehF9eRonAIHKo-134" value="1...*" style="edgeLabel;html=1;align=center;verticalAlign=middle;resizable=0;points=[];fontSize=16;fontFamily=Helvetica;fontColor=default;" vertex="1" connectable="0" parent="piZFjqWehF9eRonAIHKo-130">
          <mxGeometry x="0.8118" y="-2" relative="1" as="geometry">
            <mxPoint x="-18" as="offset" />
          </mxGeometry>
        </mxCell>
        <mxCell id="piZFjqWehF9eRonAIHKo-135" value="Departamento" style="rounded=0;whiteSpace=wrap;html=1;strokeColor=default;align=center;verticalAlign=middle;fontFamily=Helvetica;fontSize=16;fontColor=default;fillColor=default;" vertex="1" parent="1">
          <mxGeometry x="480" y="-680" width="120" height="60" as="geometry" />
        </mxCell>
        <mxCell id="piZFjqWehF9eRonAIHKo-136" style="edgeStyle=orthogonalEdgeStyle;shape=connector;rounded=0;orthogonalLoop=1;jettySize=auto;html=1;exitX=0.5;exitY=1;exitDx=0;exitDy=0;entryX=0.5;entryY=0;entryDx=0;entryDy=0;labelBackgroundColor=default;strokeColor=default;align=center;verticalAlign=middle;fontFamily=Helvetica;fontSize=16;fontColor=default;endArrow=none;endFill=0;startSize=8;endSize=8;" edge="1" parent="1" source="piZFjqWehF9eRonAIHKo-141" target="piZFjqWehF9eRonAIHKo-135">
          <mxGeometry relative="1" as="geometry" />
        </mxCell>
        <mxCell id="piZFjqWehF9eRonAIHKo-137" value="Está ubicado -&amp;gt;" style="edgeLabel;html=1;align=center;verticalAlign=middle;resizable=0;points=[];fontSize=16;fontFamily=Helvetica;fontColor=default;rotation=270;" vertex="1" connectable="0" parent="piZFjqWehF9eRonAIHKo-136">
          <mxGeometry x="-0.0792" y="5" relative="1" as="geometry">
            <mxPoint x="8" y="13" as="offset" />
          </mxGeometry>
        </mxCell>
        <mxCell id="piZFjqWehF9eRonAIHKo-138" value="1...*" style="edgeLabel;html=1;align=center;verticalAlign=middle;resizable=0;points=[];fontSize=16;fontFamily=Helvetica;fontColor=default;" vertex="1" connectable="0" parent="piZFjqWehF9eRonAIHKo-136">
          <mxGeometry x="-0.702" relative="1" as="geometry">
            <mxPoint x="20" y="-16" as="offset" />
          </mxGeometry>
        </mxCell>
        <mxCell id="piZFjqWehF9eRonAIHKo-139" value="&amp;lt;- Tiene" style="edgeLabel;html=1;align=center;verticalAlign=middle;resizable=0;points=[];fontSize=16;fontFamily=Helvetica;fontColor=default;rotation=270;" vertex="1" connectable="0" parent="piZFjqWehF9eRonAIHKo-136">
          <mxGeometry x="0.2131" y="-1" relative="1" as="geometry">
            <mxPoint x="-15" y="-19" as="offset" />
          </mxGeometry>
        </mxCell>
        <mxCell id="piZFjqWehF9eRonAIHKo-140" value="1...*" style="edgeLabel;html=1;align=center;verticalAlign=middle;resizable=0;points=[];fontSize=16;fontFamily=Helvetica;fontColor=default;" vertex="1" connectable="0" parent="piZFjqWehF9eRonAIHKo-136">
          <mxGeometry x="0.7621" y="-4" relative="1" as="geometry">
            <mxPoint x="-15" y="7" as="offset" />
          </mxGeometry>
        </mxCell>
        <mxCell id="piZFjqWehF9eRonAIHKo-141" value="País" style="rounded=0;whiteSpace=wrap;html=1;strokeColor=default;align=center;verticalAlign=middle;fontFamily=Helvetica;fontSize=16;fontColor=default;fillColor=default;" vertex="1" parent="1">
          <mxGeometry x="480" y="-930" width="120" height="60" as="geometry" />
        </mxCell>
        <mxCell id="piZFjqWehF9eRonAIHKo-142" style="edgeStyle=orthogonalEdgeStyle;shape=connector;rounded=0;orthogonalLoop=1;jettySize=auto;html=1;exitX=0.75;exitY=1;exitDx=0;exitDy=0;entryX=0.5;entryY=1;entryDx=0;entryDy=0;labelBackgroundColor=default;strokeColor=default;align=center;verticalAlign=middle;fontFamily=Helvetica;fontSize=16;fontColor=default;endArrow=none;endFill=0;startSize=8;endSize=8;" edge="1" parent="1" source="piZFjqWehF9eRonAIHKo-123" target="piZFjqWehF9eRonAIHKo-123">
          <mxGeometry relative="1" as="geometry" />
        </mxCell>
        <mxCell id="piZFjqWehF9eRonAIHKo-145" style="edgeStyle=orthogonalEdgeStyle;rounded=0;orthogonalLoop=1;jettySize=auto;html=1;exitX=0.5;exitY=0;exitDx=0;exitDy=0;fontSize=12;startSize=8;endSize=8;entryX=0.5;entryY=1;entryDx=0;entryDy=0;endArrow=none;endFill=0;" edge="1" parent="1" source="piZFjqWehF9eRonAIHKo-143" target="piZFjqWehF9eRonAIHKo-123">
          <mxGeometry relative="1" as="geometry">
            <mxPoint x="550" y="-50" as="targetPoint" />
          </mxGeometry>
        </mxCell>
        <mxCell id="piZFjqWehF9eRonAIHKo-143" value="Sede" style="whiteSpace=wrap;html=1;fontSize=16;rounded=0;" vertex="1" parent="1">
          <mxGeometry x="480" y="90" width="120" height="60" as="geometry" />
        </mxCell>
        <mxCell id="piZFjqWehF9eRonAIHKo-193" style="edgeStyle=orthogonalEdgeStyle;rounded=0;orthogonalLoop=1;jettySize=auto;html=1;exitX=0.75;exitY=1;exitDx=0;exitDy=0;entryX=0.5;entryY=0;entryDx=0;entryDy=0;fontSize=12;startSize=8;endSize=8;endArrow=none;endFill=0;" edge="1" parent="1" source="piZFjqWehF9eRonAIHKo-147" target="piZFjqWehF9eRonAIHKo-190">
          <mxGeometry relative="1" as="geometry" />
        </mxCell>
        <mxCell id="piZFjqWehF9eRonAIHKo-197" value="Contiene -&amp;gt;" style="edgeLabel;html=1;align=center;verticalAlign=middle;resizable=0;points=[];fontSize=16;fontFamily=Helvetica;fontColor=default;rotation=90;" vertex="1" connectable="0" parent="piZFjqWehF9eRonAIHKo-193">
          <mxGeometry x="-0.032" y="-1" relative="1" as="geometry">
            <mxPoint x="-11" y="3" as="offset" />
          </mxGeometry>
        </mxCell>
        <mxCell id="piZFjqWehF9eRonAIHKo-198" value="Está asociado -&amp;gt;" style="edgeLabel;html=1;align=center;verticalAlign=middle;resizable=0;points=[];fontSize=16;fontFamily=Helvetica;fontColor=default;rotation=-90;" vertex="1" connectable="0" parent="piZFjqWehF9eRonAIHKo-193">
          <mxGeometry x="0.6145" y="-1" relative="1" as="geometry">
            <mxPoint x="13" y="-45" as="offset" />
          </mxGeometry>
        </mxCell>
        <mxCell id="piZFjqWehF9eRonAIHKo-199" value="1...1" style="edgeLabel;html=1;align=center;verticalAlign=middle;resizable=0;points=[];fontSize=16;fontFamily=Helvetica;fontColor=default;" vertex="1" connectable="0" parent="piZFjqWehF9eRonAIHKo-193">
          <mxGeometry x="-0.8884" y="-1" relative="1" as="geometry">
            <mxPoint x="19" y="2" as="offset" />
          </mxGeometry>
        </mxCell>
        <mxCell id="piZFjqWehF9eRonAIHKo-200" value="1...*" style="edgeLabel;html=1;align=center;verticalAlign=middle;resizable=0;points=[];fontSize=16;fontFamily=Helvetica;fontColor=default;" vertex="1" connectable="0" parent="piZFjqWehF9eRonAIHKo-193">
          <mxGeometry x="0.8507" y="1" relative="1" as="geometry">
            <mxPoint x="-19" as="offset" />
          </mxGeometry>
        </mxCell>
        <mxCell id="piZFjqWehF9eRonAIHKo-147" value="OrdenProducto" style="whiteSpace=wrap;html=1;fontSize=16;rounded=0;" vertex="1" parent="1">
          <mxGeometry x="1300" y="810" width="120" height="60" as="geometry" />
        </mxCell>
        <mxCell id="piZFjqWehF9eRonAIHKo-153" value="Está Ubicada -&amp;gt;" style="edgeLabel;html=1;align=center;verticalAlign=middle;resizable=0;points=[];fontSize=16;fontFamily=Helvetica;fontColor=default;rotation=-90;" vertex="1" connectable="0" parent="1">
          <mxGeometry x="557" y="10.782608695652243" as="geometry" />
        </mxCell>
        <mxCell id="piZFjqWehF9eRonAIHKo-154" value="1...*" style="edgeLabel;html=1;align=center;verticalAlign=middle;resizable=0;points=[];fontSize=16;fontFamily=Helvetica;fontColor=default;" vertex="1" connectable="0" parent="1">
          <mxGeometry x="558" y="-80" as="geometry" />
        </mxCell>
        <mxCell id="piZFjqWehF9eRonAIHKo-155" value="&amp;lt;- Tiene" style="edgeLabel;html=1;align=center;verticalAlign=middle;resizable=0;points=[];fontSize=16;fontFamily=Helvetica;fontColor=default;rotation=-90;" vertex="1" connectable="0" parent="1">
          <mxGeometry x="522" y="16.304347826087223" as="geometry" />
        </mxCell>
        <mxCell id="piZFjqWehF9eRonAIHKo-156" value="1...*" style="edgeLabel;html=1;align=center;verticalAlign=middle;resizable=0;points=[];fontSize=16;fontFamily=Helvetica;fontColor=default;" vertex="1" connectable="0" parent="1">
          <mxGeometry x="522" y="77.78260869565224" as="geometry" />
        </mxCell>
        <mxCell id="piZFjqWehF9eRonAIHKo-161" value="EstadoEncargadoDomi" style="whiteSpace=wrap;html=1;fontSize=16;rounded=0;" vertex="1" parent="1">
          <mxGeometry x="1070" y="1280" width="120" height="60" as="geometry" />
        </mxCell>
        <mxCell id="piZFjqWehF9eRonAIHKo-168" value="EstadoConversación" style="whiteSpace=wrap;html=1;fontSize=16;rounded=0;" vertex="1" parent="1">
          <mxGeometry x="500" y="980" width="120" height="60" as="geometry" />
        </mxCell>
        <mxCell id="piZFjqWehF9eRonAIHKo-170" value="Tiene -&amp;gt;" style="edgeLabel;html=1;align=center;verticalAlign=middle;resizable=0;points=[];fontSize=16;rotation=90;" vertex="1" connectable="0" parent="1">
          <mxGeometry x="547" y="854.5000000000005" as="geometry" />
        </mxCell>
        <mxCell id="piZFjqWehF9eRonAIHKo-171" value="Está asociado -&amp;gt;" style="edgeLabel;html=1;align=center;verticalAlign=middle;resizable=0;points=[];fontSize=16;rotation=-90;" vertex="1" connectable="0" parent="1">
          <mxGeometry x="570.9999999999995" y="860" as="geometry" />
        </mxCell>
        <mxCell id="piZFjqWehF9eRonAIHKo-172" value="1...1" style="edgeLabel;html=1;align=center;verticalAlign=middle;resizable=0;points=[];fontSize=16;" vertex="1" connectable="0" parent="1">
          <mxGeometry x="537" y="953.25" as="geometry" />
        </mxCell>
        <mxCell id="piZFjqWehF9eRonAIHKo-173" value="1...*" style="edgeLabel;html=1;align=center;verticalAlign=middle;resizable=0;points=[];fontSize=16;" vertex="1" connectable="0" parent="1">
          <mxGeometry x="577" y="756" as="geometry" />
        </mxCell>
        <mxCell id="piZFjqWehF9eRonAIHKo-179" style="edgeStyle=orthogonalEdgeStyle;rounded=0;orthogonalLoop=1;jettySize=auto;html=1;exitX=0.5;exitY=0;exitDx=0;exitDy=0;fontSize=12;startSize=8;endSize=8;endArrow=none;endFill=0;" edge="1" parent="1" source="piZFjqWehF9eRonAIHKo-174">
          <mxGeometry relative="1" as="geometry">
            <mxPoint x="890" y="740" as="targetPoint" />
            <Array as="points">
              <mxPoint x="750" y="860" />
              <mxPoint x="890" y="860" />
              <mxPoint x="890" y="740" />
            </Array>
          </mxGeometry>
        </mxCell>
        <mxCell id="piZFjqWehF9eRonAIHKo-180" value="Está asociado -&amp;gt;" style="edgeLabel;html=1;align=center;verticalAlign=middle;resizable=0;points=[];fontSize=16;" vertex="1" connectable="0" parent="piZFjqWehF9eRonAIHKo-179">
          <mxGeometry x="-0.04" y="-1" relative="1" as="geometry">
            <mxPoint y="12" as="offset" />
          </mxGeometry>
        </mxCell>
        <mxCell id="piZFjqWehF9eRonAIHKo-181" value="&amp;lt;- Tiene" style="edgeLabel;html=1;align=center;verticalAlign=middle;resizable=0;points=[];fontSize=16;" vertex="1" connectable="0" parent="piZFjqWehF9eRonAIHKo-179">
          <mxGeometry x="-0.115" y="1" relative="1" as="geometry">
            <mxPoint y="-12" as="offset" />
          </mxGeometry>
        </mxCell>
        <mxCell id="piZFjqWehF9eRonAIHKo-182" value="1...1" style="edgeLabel;html=1;align=center;verticalAlign=middle;resizable=0;points=[];fontSize=16;" vertex="1" connectable="0" parent="piZFjqWehF9eRonAIHKo-179">
          <mxGeometry x="-0.9112" y="2" relative="1" as="geometry">
            <mxPoint x="-18" y="3" as="offset" />
          </mxGeometry>
        </mxCell>
        <mxCell id="piZFjqWehF9eRonAIHKo-183" value="1...*" style="edgeLabel;html=1;align=center;verticalAlign=middle;resizable=0;points=[];fontSize=16;" vertex="1" connectable="0" parent="piZFjqWehF9eRonAIHKo-179">
          <mxGeometry x="0.92" y="1" relative="1" as="geometry">
            <mxPoint x="18" y="1" as="offset" />
          </mxGeometry>
        </mxCell>
        <mxCell id="piZFjqWehF9eRonAIHKo-174" value="EstadoOrdenDomi&lt;br&gt;" style="whiteSpace=wrap;html=1;fontSize=16;rounded=0;" vertex="1" parent="1">
          <mxGeometry x="690" y="980" width="120" height="60" as="geometry" />
        </mxCell>
        <mxCell id="piZFjqWehF9eRonAIHKo-188" value="Descuento" style="rounded=0;whiteSpace=wrap;html=1;fontSize=16;" vertex="1" parent="1">
          <mxGeometry x="2030" y="780" width="120" height="60" as="geometry" />
        </mxCell>
        <mxCell id="piZFjqWehF9eRonAIHKo-214" style="edgeStyle=orthogonalEdgeStyle;shape=connector;rounded=0;orthogonalLoop=1;jettySize=auto;html=1;exitX=0.25;exitY=1;exitDx=0;exitDy=0;entryX=0.835;entryY=0.998;entryDx=0;entryDy=0;labelBackgroundColor=default;strokeColor=default;align=center;verticalAlign=middle;fontFamily=Helvetica;fontSize=16;fontColor=default;endArrow=none;endFill=0;startSize=8;endSize=8;entryPerimeter=0;" edge="1" parent="1" source="piZFjqWehF9eRonAIHKo-189" target="piZFjqWehF9eRonAIHKo-190">
          <mxGeometry relative="1" as="geometry">
            <Array as="points">
              <mxPoint x="2060" y="1190" />
              <mxPoint x="1430" y="1190" />
              <mxPoint x="1430" y="1110" />
            </Array>
          </mxGeometry>
        </mxCell>
        <mxCell id="piZFjqWehF9eRonAIHKo-228" value="Puede tener -&amp;gt;" style="edgeLabel;html=1;align=center;verticalAlign=middle;resizable=0;points=[];fontSize=16;fontFamily=Helvetica;fontColor=default;" vertex="1" connectable="0" parent="piZFjqWehF9eRonAIHKo-214">
          <mxGeometry x="0.23" relative="1" as="geometry">
            <mxPoint x="-13" y="13" as="offset" />
          </mxGeometry>
        </mxCell>
        <mxCell id="piZFjqWehF9eRonAIHKo-231" value="&amp;lt;- Está asociado" style="edgeLabel;html=1;align=center;verticalAlign=middle;resizable=0;points=[];fontSize=16;fontFamily=Helvetica;fontColor=default;" vertex="1" connectable="0" parent="piZFjqWehF9eRonAIHKo-214">
          <mxGeometry x="0.2767" y="-2" relative="1" as="geometry">
            <mxPoint y="-10" as="offset" />
          </mxGeometry>
        </mxCell>
        <mxCell id="piZFjqWehF9eRonAIHKo-234" value="1...1" style="edgeLabel;html=1;align=center;verticalAlign=middle;resizable=0;points=[];fontSize=12;fontFamily=Helvetica;fontColor=default;" vertex="1" connectable="0" parent="piZFjqWehF9eRonAIHKo-214">
          <mxGeometry x="0.9705" y="3" relative="1" as="geometry">
            <mxPoint x="15" y="-6" as="offset" />
          </mxGeometry>
        </mxCell>
        <mxCell id="piZFjqWehF9eRonAIHKo-237" value="1...*" style="edgeLabel;html=1;align=center;verticalAlign=middle;resizable=0;points=[];fontSize=16;fontFamily=Helvetica;fontColor=default;" vertex="1" connectable="0" parent="piZFjqWehF9eRonAIHKo-214">
          <mxGeometry x="-0.9567" y="3" relative="1" as="geometry">
            <mxPoint x="13" y="-10" as="offset" />
          </mxGeometry>
        </mxCell>
        <mxCell id="piZFjqWehF9eRonAIHKo-189" value="Adición" style="rounded=0;whiteSpace=wrap;html=1;fontSize=16;" vertex="1" parent="1">
          <mxGeometry x="2030" y="870" width="120" height="60" as="geometry" />
        </mxCell>
        <mxCell id="piZFjqWehF9eRonAIHKo-194" style="edgeStyle=orthogonalEdgeStyle;rounded=0;orthogonalLoop=1;jettySize=auto;html=1;exitX=1;exitY=0.5;exitDx=0;exitDy=0;entryX=0;entryY=0.5;entryDx=0;entryDy=0;fontSize=12;startSize=8;endSize=8;endArrow=none;endFill=0;" edge="1" parent="1" source="piZFjqWehF9eRonAIHKo-190" target="piZFjqWehF9eRonAIHKo-191">
          <mxGeometry relative="1" as="geometry" />
        </mxCell>
        <mxCell id="piZFjqWehF9eRonAIHKo-201" value="Está asociado -&amp;gt;" style="edgeLabel;html=1;align=center;verticalAlign=middle;resizable=0;points=[];fontSize=16;fontFamily=Helvetica;fontColor=default;" vertex="1" connectable="0" parent="piZFjqWehF9eRonAIHKo-194">
          <mxGeometry x="-0.0946" y="-2" relative="1" as="geometry">
            <mxPoint y="11" as="offset" />
          </mxGeometry>
        </mxCell>
        <mxCell id="piZFjqWehF9eRonAIHKo-206" value="&amp;lt;- Contiene" style="edgeLabel;html=1;align=center;verticalAlign=middle;resizable=0;points=[];fontSize=16;fontFamily=Helvetica;fontColor=default;" vertex="1" connectable="0" parent="piZFjqWehF9eRonAIHKo-194">
          <mxGeometry x="0.094" y="2" relative="1" as="geometry">
            <mxPoint x="-33" y="-13" as="offset" />
          </mxGeometry>
        </mxCell>
        <mxCell id="piZFjqWehF9eRonAIHKo-207" value="1...*" style="edgeLabel;html=1;align=center;verticalAlign=middle;resizable=0;points=[];fontSize=16;fontFamily=Helvetica;fontColor=default;" vertex="1" connectable="0" parent="piZFjqWehF9eRonAIHKo-194">
          <mxGeometry x="-0.8559" y="2" relative="1" as="geometry">
            <mxPoint x="-2" y="-11" as="offset" />
          </mxGeometry>
        </mxCell>
        <mxCell id="piZFjqWehF9eRonAIHKo-208" value="1...1" style="edgeLabel;html=1;align=center;verticalAlign=middle;resizable=0;points=[];fontSize=16;fontFamily=Helvetica;fontColor=default;" vertex="1" connectable="0" parent="piZFjqWehF9eRonAIHKo-194">
          <mxGeometry x="0.8431" relative="1" as="geometry">
            <mxPoint y="13" as="offset" />
          </mxGeometry>
        </mxCell>
        <mxCell id="piZFjqWehF9eRonAIHKo-213" style="edgeStyle=orthogonalEdgeStyle;shape=connector;rounded=0;orthogonalLoop=1;jettySize=auto;html=1;exitX=0.5;exitY=1;exitDx=0;exitDy=0;entryX=1;entryY=0.5;entryDx=0;entryDy=0;labelBackgroundColor=default;strokeColor=default;align=center;verticalAlign=middle;fontFamily=Helvetica;fontSize=16;fontColor=default;endArrow=none;endFill=0;startSize=8;endSize=8;" edge="1" parent="1" source="piZFjqWehF9eRonAIHKo-190" target="piZFjqWehF9eRonAIHKo-188">
          <mxGeometry relative="1" as="geometry">
            <Array as="points">
              <mxPoint x="1390" y="1250" />
              <mxPoint x="2190" y="1250" />
              <mxPoint x="2190" y="825" />
              <mxPoint x="2150" y="825" />
            </Array>
          </mxGeometry>
        </mxCell>
        <mxCell id="piZFjqWehF9eRonAIHKo-229" value="Puede tener -&amp;gt;" style="edgeLabel;html=1;align=center;verticalAlign=middle;resizable=0;points=[];fontSize=16;fontFamily=Helvetica;fontColor=default;" vertex="1" connectable="0" parent="piZFjqWehF9eRonAIHKo-213">
          <mxGeometry x="-0.2954" y="2" relative="1" as="geometry">
            <mxPoint x="-33" y="14" as="offset" />
          </mxGeometry>
        </mxCell>
        <mxCell id="piZFjqWehF9eRonAIHKo-232" value="&amp;lt;- Está asociado" style="edgeLabel;html=1;align=center;verticalAlign=middle;resizable=0;points=[];fontSize=16;fontFamily=Helvetica;fontColor=default;" vertex="1" connectable="0" parent="piZFjqWehF9eRonAIHKo-213">
          <mxGeometry x="-0.3339" relative="1" as="geometry">
            <mxPoint x="-16" y="-12" as="offset" />
          </mxGeometry>
        </mxCell>
        <mxCell id="piZFjqWehF9eRonAIHKo-235" value="1...1" style="edgeLabel;html=1;align=center;verticalAlign=middle;resizable=0;points=[];fontSize=12;fontFamily=Helvetica;fontColor=default;" vertex="1" connectable="0" parent="piZFjqWehF9eRonAIHKo-213">
          <mxGeometry x="-0.9782" y="-2" relative="1" as="geometry">
            <mxPoint x="15" y="-6" as="offset" />
          </mxGeometry>
        </mxCell>
        <mxCell id="piZFjqWehF9eRonAIHKo-239" value="1...*" style="edgeLabel;html=1;align=center;verticalAlign=middle;resizable=0;points=[];fontSize=13;fontFamily=Helvetica;fontColor=default;" vertex="1" connectable="0" parent="piZFjqWehF9eRonAIHKo-213">
          <mxGeometry x="0.9543" y="2" relative="1" as="geometry">
            <mxPoint x="-3" y="8" as="offset" />
          </mxGeometry>
        </mxCell>
        <mxCell id="piZFjqWehF9eRonAIHKo-190" value="Combo" style="rounded=0;whiteSpace=wrap;html=1;fontSize=16;" vertex="1" parent="1">
          <mxGeometry x="1330" y="1050" width="120" height="60" as="geometry" />
        </mxCell>
        <mxCell id="piZFjqWehF9eRonAIHKo-191" value="ComboProducto" style="rounded=0;whiteSpace=wrap;html=1;fontSize=16;" vertex="1" parent="1">
          <mxGeometry x="1710" y="1050" width="120" height="60" as="geometry" />
        </mxCell>
        <mxCell id="piZFjqWehF9eRonAIHKo-212" style="edgeStyle=orthogonalEdgeStyle;shape=connector;rounded=0;orthogonalLoop=1;jettySize=auto;html=1;exitX=1;exitY=0.25;exitDx=0;exitDy=0;labelBackgroundColor=default;strokeColor=default;align=center;verticalAlign=middle;fontFamily=Helvetica;fontSize=16;fontColor=default;endArrow=none;endFill=0;startSize=8;endSize=8;entryX=0.178;entryY=0.982;entryDx=0;entryDy=0;entryPerimeter=0;" edge="1" parent="1" source="piZFjqWehF9eRonAIHKo-192" target="piZFjqWehF9eRonAIHKo-190">
          <mxGeometry relative="1" as="geometry">
            <mxPoint x="1340" y="1110" as="targetPoint" />
            <Array as="points">
              <mxPoint x="2110" y="700" />
              <mxPoint x="2220" y="700" />
              <mxPoint x="2220" y="1310" />
              <mxPoint x="1350" y="1310" />
              <mxPoint x="1350" y="1110" />
              <mxPoint x="1351" y="1110" />
            </Array>
          </mxGeometry>
        </mxCell>
        <mxCell id="piZFjqWehF9eRonAIHKo-230" value="Puede tener -&amp;gt;" style="edgeLabel;html=1;align=center;verticalAlign=middle;resizable=0;points=[];fontSize=16;fontFamily=Helvetica;fontColor=default;" vertex="1" connectable="0" parent="piZFjqWehF9eRonAIHKo-212">
          <mxGeometry x="0.3251" y="-4" relative="1" as="geometry">
            <mxPoint x="-51" y="16" as="offset" />
          </mxGeometry>
        </mxCell>
        <mxCell id="piZFjqWehF9eRonAIHKo-233" value="&amp;lt;- Está asociado" style="edgeLabel;html=1;align=center;verticalAlign=middle;resizable=0;points=[];fontSize=16;fontFamily=Helvetica;fontColor=default;" vertex="1" connectable="0" parent="piZFjqWehF9eRonAIHKo-212">
          <mxGeometry x="0.3952" y="-1" relative="1" as="geometry">
            <mxPoint x="7" y="-11" as="offset" />
          </mxGeometry>
        </mxCell>
        <mxCell id="piZFjqWehF9eRonAIHKo-236" value="1...1" style="edgeLabel;html=1;align=center;verticalAlign=middle;resizable=0;points=[];fontSize=12;fontFamily=Helvetica;fontColor=default;" vertex="1" connectable="0" parent="piZFjqWehF9eRonAIHKo-212">
          <mxGeometry x="0.9735" y="3" relative="1" as="geometry">
            <mxPoint x="15" y="-13" as="offset" />
          </mxGeometry>
        </mxCell>
        <mxCell id="piZFjqWehF9eRonAIHKo-238" value="1...*" style="edgeLabel;html=1;align=center;verticalAlign=middle;resizable=0;points=[];fontSize=16;fontFamily=Helvetica;fontColor=default;" vertex="1" connectable="0" parent="piZFjqWehF9eRonAIHKo-212">
          <mxGeometry x="-0.9278" y="-1" relative="1" as="geometry">
            <mxPoint x="-29" y="11" as="offset" />
          </mxGeometry>
        </mxCell>
        <mxCell id="piZFjqWehF9eRonAIHKo-192" value="CambioPrecio" style="rounded=0;whiteSpace=wrap;html=1;fontSize=16;" vertex="1" parent="1">
          <mxGeometry x="1990" y="670" width="120" height="60" as="geometry" />
        </mxCell>
        <mxCell id="piZFjqWehF9eRonAIHKo-195" style="edgeStyle=orthogonalEdgeStyle;rounded=0;orthogonalLoop=1;jettySize=auto;html=1;entryX=0.5;entryY=1;entryDx=0;entryDy=0;fontSize=12;startSize=8;endSize=8;endArrow=none;endFill=0;exitX=0.33;exitY=0.012;exitDx=0;exitDy=0;exitPerimeter=0;" edge="1" parent="1" source="piZFjqWehF9eRonAIHKo-191" target="piZFjqWehF9eRonAIHKo-42">
          <mxGeometry relative="1" as="geometry">
            <mxPoint x="1750" y="1050" as="sourcePoint" />
            <Array as="points">
              <mxPoint x="1750" y="1050" />
            </Array>
          </mxGeometry>
        </mxCell>
        <mxCell id="piZFjqWehF9eRonAIHKo-202" value="Contiene -&amp;gt;" style="edgeLabel;html=1;align=center;verticalAlign=middle;resizable=0;points=[];fontSize=16;fontFamily=Helvetica;fontColor=default;rotation=-90;" vertex="1" connectable="0" parent="piZFjqWehF9eRonAIHKo-195">
          <mxGeometry x="0.1971" relative="1" as="geometry">
            <mxPoint x="13" y="16" as="offset" />
          </mxGeometry>
        </mxCell>
        <mxCell id="piZFjqWehF9eRonAIHKo-203" value="Pertenece -&amp;gt;" style="edgeLabel;html=1;align=center;verticalAlign=middle;resizable=0;points=[];fontSize=16;fontFamily=Helvetica;fontColor=default;rotation=90;" vertex="1" connectable="0" parent="piZFjqWehF9eRonAIHKo-195">
          <mxGeometry x="-0.2516" relative="1" as="geometry">
            <mxPoint x="-13" y="-17" as="offset" />
          </mxGeometry>
        </mxCell>
        <mxCell id="piZFjqWehF9eRonAIHKo-204" value="1...*" style="edgeLabel;html=1;align=center;verticalAlign=middle;resizable=0;points=[];fontSize=16;fontFamily=Helvetica;fontColor=default;" vertex="1" connectable="0" parent="piZFjqWehF9eRonAIHKo-195">
          <mxGeometry x="0.8701" y="-2" relative="1" as="geometry">
            <mxPoint x="15" as="offset" />
          </mxGeometry>
        </mxCell>
        <mxCell id="piZFjqWehF9eRonAIHKo-205" value="1...1" style="edgeLabel;html=1;align=center;verticalAlign=middle;resizable=0;points=[];fontSize=16;fontFamily=Helvetica;fontColor=default;" vertex="1" connectable="0" parent="piZFjqWehF9eRonAIHKo-195">
          <mxGeometry x="-0.8625" relative="1" as="geometry">
            <mxPoint x="-19" y="1" as="offset" />
          </mxGeometry>
        </mxCell>
      </root>
    </mxGraphModel>
  </diagram>
</mxfile>
